<?xml version="1.0" standalone="no"?><!DOCTYPE svg PUBLIC "-//W3C//DTD SVG 1.1//EN" "http://www.w3.org/Graphics/SVG/1.1/DTD/svg11.dtd"><svg t="1628222832284" class="icon" viewBox="0 0 1024 1024" version="1.1" xmlns="http://www.w3.org/2000/svg" p-id="2479" xmlns:xlink="http://www.w3.org/1999/xlink" width="200" height="200"><defs><style type="text/css"></style></defs><path d="M362.338462 110.276923c134.522092 0 275.897108 36.785231 326.845046 105.834339C751.537231 168.912738 872.479508 144.620308 992.492308 144.620308h31.507692v521.452307h-31.507692c-180.791138 0-280.733538 53.295262-283.506216 81.667939L708.923077 748.937846C708.923077 851.968 559.891692 929.476923 362.338462 929.476923S15.753846 851.968 15.753846 748.937846V290.816c0-2.158277 0.220554-4.269292 0.630154-6.301538a97.012185 97.012185 0 0 1-0.630154-11.027693C15.753846 167.305846 194.402462 110.276923 362.338462 110.276923z m0 326.419692c-106.196677 0-216.6784-22.811569-283.569231-66.433969V748.937846C78.769231 803.446154 200.073846 866.461538 362.338462 866.461538s283.569231-63.015385 283.56923-117.523692V370.120862c-66.875077 43.638154-177.3568 66.575754-283.56923 66.575753z m598.646153-228.430769c-161.004308 5.576862-249.320369 54.539815-251.998523 81.3056L708.923077 290.816v370.640738c59.707077-34.816 154.497969-54.461046 252.061538-58.08443V208.265846zM362.338462 173.292308c-172.977231 0-283.569231 59.234462-283.569231 100.194461 0 40.96 110.592 100.194462 283.569231 100.194462s283.569231-59.234462 283.56923-100.194462c0-40.96-110.592-100.194462-283.56923-100.194461z m31.507692 63.015384a31.507692 31.507692 0 1 1 0 63.015385h-63.015385a31.507692 31.507692 0 1 1 0-63.015385h63.015385z" fill="#000000" p-id="2480"></path></svg>