<?xml version="1.0" standalone="no"?><!DOCTYPE svg PUBLIC "-//W3C//DTD SVG 1.1//EN" "http://www.w3.org/Graphics/SVG/1.1/DTD/svg11.dtd"><svg t="1628221832641" class="icon" viewBox="0 0 1024 1024" version="1.1" xmlns="http://www.w3.org/2000/svg" p-id="2450" xmlns:xlink="http://www.w3.org/1999/xlink" width="200" height="200"><defs><style type="text/css"></style></defs><path d="M783.872 571.869867c70.929067-113.698133 52.0192-255.488-39.765333-289.109334-49.732267-18.158933-118.8864-2.2528-207.530667 47.7184-10.922667 7.2704-19.2512 10.8544-24.917333 10.8544-5.7344 0-14.097067-3.6864-25.088-10.990933-86.016-49.800533-154.385067-65.6384-204.970667-47.479467-94.1056 33.757867-113.834667 175.377067-41.6768 288.768 54.954667 86.357333 174.011733 197.051733 271.7696 244.224 98.816-47.377067 218.9312-158.651733 272.1792-243.985066z m-16.315733-353.1776c139.776 51.131733 165.376 243.2 74.24 389.290666-62.737067 100.5568-202.0352 227.7376-316.757334 276.753067l-26.862933-0.034133c-113.527467-48.810667-251.392-175.138133-315.869867-276.445867C89.429333 462.2336 116.224 269.653333 258.525867 218.589867c90.0096-32.256 181.930667-11.1616 253.269333 49.0496 72.2944-60.074667 166.912-81.476267 255.761067-48.9472zM546.133333 512h102.4v68.266667h-102.4v102.4h-68.266666v-102.4h-102.4v-68.266667h102.4v-102.4h68.266666v102.4z" p-id="2451"></path></svg>