<?xml version="1.0" standalone="no"?><!DOCTYPE svg PUBLIC "-//W3C//DTD SVG 1.1//EN" "http://www.w3.org/Graphics/SVG/1.1/DTD/svg11.dtd"><svg t="1628220691585" class="icon" viewBox="0 0 1024 1024" version="1.1" xmlns="http://www.w3.org/2000/svg" p-id="2639" xmlns:xlink="http://www.w3.org/1999/xlink" width="200" height="200"><defs><style type="text/css"></style></defs><path d="M349.0816 375.3984C272.2816 450.048 238.933333 507.153067 238.933333 573.5424 238.933333 707.925333 359.970133 819.2 512 819.2c152.029867 0 273.066667-111.3088 273.066667-245.6576 0-64.989867-33.3824-122.6752-105.301334-194.218667a7459.4304 7459.4304 0 0 1-168.174933-156.125866 19802.8288 19802.8288 0 0 1-162.5088 152.200533zM512 887.466667c-188.5184 0-341.333333-140.526933-341.333333-313.924267 0-100.317867 57.6512-175.991467 130.798933-247.125333a19230.276267 19230.276267 0 0 0 198.656-186.4704 17.066667 17.066667 0 0 1 23.6544 0.136533 7244.5952 7244.5952 0 0 0 201.693867 188.484267C795.272533 397.9264 853.333333 474.487467 853.333333 573.5424 853.333333 746.939733 700.5184 887.466667 512 887.466667z m-109.568-369.800534l150.698667-162.952533 50.107733 46.353067-98.0992 106.0864 117.9648 84.309333-151.7568 171.144533-51.063467-45.294933 101.444267-114.3808-119.296-85.265067z" p-id="2640"></path></svg>