<?xml version="1.0" standalone="no"?><!DOCTYPE svg PUBLIC "-//W3C//DTD SVG 1.1//EN" "http://www.w3.org/Graphics/SVG/1.1/DTD/svg11.dtd"><svg t="1628222346568" class="icon" viewBox="0 0 1024 1024" version="1.1" xmlns="http://www.w3.org/2000/svg" p-id="18919" xmlns:xlink="http://www.w3.org/1999/xlink" width="200" height="200"><defs><style type="text/css"></style></defs><path d="M887.9 754.7L585.2 300l-0.8-1.2-0.9-1.1c-24.4-31.8-61.5-50.1-101.6-50.1-24.8 0-48.6 7.1-69 20.2-0.4-21.3-5.9-43.3-12.8-67.1-8.3-28.8-24.1-55.3-44.5-74.6-21.8-20.7-44.9-29.4-63.5-24.1-14.8 4.3-26.4 20.7-34 40.3-35.9-20.2-73.3-20.7-95.9 0.8-22.7 21.7-24.3 58.3-5.9 95.1-18.6 6.4-35.2 16.7-40.2 31.4-12.7 37.1 32.6 91.9 93.3 112.8 21.9 7.5 43.4 14.1 64.6 16-19.5 23.7-30 53.9-29.1 85 1 36.3 17.5 70.5 45.1 94l1.1 0.9 1.1 0.8 439.3 324.6c19.4 16 43.9 24.8 69.1 24.8 28 0 54.7-10.6 75-30 40.1-38.2 45.2-99.7 12.3-143.8zM155.6 284.5c4.4-3.2 16.9-9.5 36.6-12.1l36.1-4.7-22.3-28.8c-21.3-27.5-25-56.2-15-65.6 10.1-9.6 38.9-4.3 65.6 18.9l28.2 24.5 6.1-36.8c3.4-20.3 10.5-33.1 14.1-37.5 11 2 42.2 25.6 55 70 15.8 54.7 16.6 79.2-10.9 108.1-2.7 2.9-4.5 6.3-5.2 9.9l-6.8 6.4c-3.6 0.6-7 2.2-9.9 4.7-23.7 20.3-48.1 20.6-104.3 1.3-44-15.2-66.1-47.9-67.3-58.3z m691.3 583.6c-12.9 12.3-29.5 18.5-46.2 18.5-15.4 0-30.8-5.3-43.3-15.9L585.9 744c17.6-18.5 53.9-55.3 79.4-71.5 9.7-6.2 12.6-19.1 6.4-28.8-6.2-9.7-19.1-12.6-28.8-6.4-31.4 20-73.8 63.7-90.8 81.7L401.6 607.8c17.3-18.2 54.3-55.8 80.2-72.3 9.7-6.2 12.6-19.1 6.4-28.8-6.2-9.7-19.1-12.6-28.8-6.4-31.9 20.3-75.1 65-91.6 82.5L317 545.3c-39.1-33.2-40.8-92.9-3.7-128.3l109.2-103.9c16.8-16 38.2-23.8 59.4-23.8 25.8 0 51.4 11.5 68.5 33.7l97 145.8c-37.6 28.5-82.6 77.9-84.8 80.2-7.8 8.5-7.1 21.7 1.4 29.5 4 3.6 9 5.4 14 5.4 5.7 0 11.4-2.3 15.5-6.8 0.5-0.5 43.2-47.4 77-73.5l183.2 275.2c21 27.2 18 65.7-6.8 89.3z" p-id="18920"></path></svg>